<svg width="1280" height="640" viewBox="0 0 1280 640" fill="none" xmlns="http://www.w3.org/2000/svg">
  <!-- Background -->
  <rect width="1280" height="640" fill="#0F172A"/>

  <!-- Decorative geometric shapes -->
  <circle cx="1050" cy="120" r="300" fill="#2972B0" opacity="0.15"/>
  <circle cx="200" cy="520" r="250" fill="#36BECF" opacity="0.12"/>
  <circle cx="950" cy="480" r="120" fill="#F5BC3D" opacity="0.08"/>

  <!-- Subtle grid pattern -->
  <defs>
    <pattern id="grid" width="60" height="60" patternUnits="userSpaceOnUse">
      <path d="M 60 0 L 0 0 0 60" fill="none" stroke="#ffffff" stroke-width="0.3" opacity="0.06"/>
    </pattern>
    <linearGradient id="lineGrad" x1="160" y1="0" x2="1120" y2="0" gradientUnits="userSpaceOnUse">
      <stop offset="0" stop-color="#36BECF" stop-opacity="0"/>
      <stop offset="0.3" stop-color="#36BECF"/>
      <stop offset="0.7" stop-color="#F5BC3D"/>
      <stop offset="1" stop-color="#F5BC3D" stop-opacity="0"/>
    </linearGradient>
  </defs>
  <rect width="1280" height="640" fill="url(#grid)"/>

  <!-- Horizontal accent line -->
  <line x1="160" y1="410" x2="1120" y2="410" stroke="url(#lineGrad)" stroke-width="1" opacity="0.3"/>

  <!-- Logo icon (scaled-down favicon) -->
  <g transform="translate(220, 168) scale(0.24)">
    <path d="M1162.23 128.95L482.15 126.403C437.64 126.233 417.72 181.82 445.24 229.395L918.73 1048.03C949.42 1101.09 1012.86 1101.32 1026.25 1048.43L1232.85 232.346C1244.86 184.919 1206.75 129.12 1162.24 128.95H1162.23Z" fill="#F5BC3D"/>
    <path d="M752.93 1087.1L72.85 1084.59C28.34 1084.43 -9.77003 1028.62 2.23997 981.192L208.8 165.095C222.19 112.193 285.63 112.427 316.32 165.488L789.84 984.099C817.36 1031.67 797.44 1087.26 752.93 1087.09V1087.1Z" fill="#36BECF"/>
    <path d="M899.47 961.548L219.39 959.033C174.88 958.874 136.77 903.064 148.78 855.637L355.33 39.5413C368.72 -13.3609 432.16 -13.1275 462.85 39.934L936.37 858.545C963.89 906.12 943.97 961.707 899.46 961.538L899.47 961.548Z" fill="#2972B0"/>
    <path d="M1011.91 276.068L331.83 273.521C287.32 273.351 267.4 328.939 294.92 376.514L768.41 1195.15C799.1 1248.21 862.54 1248.44 875.93 1195.55L1082.53 379.464C1094.54 332.037 1056.43 276.238 1011.92 276.068H1011.91Z" fill="#2972B0"/>
    <path d="M586.601 531.262C586.601 512.182 602.506 504.832 628.006 504.832C665.14 504.832 712.266 516.206 749.4 536.231V421.352C708.94 405.187 668.562 399.027 628.088 399.027C529.113 399.027 463.153 450.698 463.153 537.093C463.153 672.175 648.619 650.275 648.619 708.529C648.619 731.114 629.032 738.382 601.821 738.382C561.443 738.382 509.253 721.697 468.286 699.454V809.379C510.433 827.564 555.836 836.994 601.739 837.096C703.205 837.096 773.093 793.46 773.093 705.696C773.093 560.102 586.601 586.19 586.601 531.262V531.262Z" fill="white"/>
  </g>

  <!-- "seed" title text -->
  <text x="560" y="305" font-family="'Segoe UI', 'SF Pro Display', Helvetica, Arial, sans-serif" font-size="108" font-weight="700" fill="white" letter-spacing="-2">seed</text>

  <!-- Subtitle -->
  <text x="560" y="365" font-family="'Segoe UI', 'SF Pro Display', Helvetica, Arial, sans-serif" font-size="28" font-weight="300" fill="#94A3B8" letter-spacing="1">monorepo seed project</text>

  <!-- Tech badges row -->
  <g transform="translate(560, 440)" font-family="'SF Mono', 'Cascadia Code', 'Fira Code', monospace" font-size="14" font-weight="500">
    <!-- Badge: TypeScript -->
    <rect x="0" y="0" width="100" height="30" rx="6" fill="#2972B0" opacity="0.25"/>
    <rect x="0" y="0" width="100" height="30" rx="6" stroke="#2972B0" stroke-width="1" fill="none" opacity="0.5"/>
    <text x="50" y="20" text-anchor="middle" fill="#60A5FA">TypeScript</text>

    <!-- Badge: Rust -->
    <rect x="116" y="0" width="64" height="30" rx="6" fill="#F5BC3D" opacity="0.2"/>
    <rect x="116" y="0" width="64" height="30" rx="6" stroke="#F5BC3D" stroke-width="1" fill="none" opacity="0.4"/>
    <text x="148" y="20" text-anchor="middle" fill="#FCD34D">Rust</text>

    <!-- Badge: Python -->
    <rect x="196" y="0" width="76" height="30" rx="6" fill="#36BECF" opacity="0.2"/>
    <rect x="196" y="0" width="76" height="30" rx="6" stroke="#36BECF" stroke-width="1" fill="none" opacity="0.4"/>
    <text x="234" y="20" text-anchor="middle" fill="#67E8F9">Python</text>

    <!-- Badge: Vue -->
    <rect x="288" y="0" width="56" height="30" rx="6" fill="#36BECF" opacity="0.15"/>
    <rect x="288" y="0" width="56" height="30" rx="6" stroke="#36BECF" stroke-width="1" fill="none" opacity="0.35"/>
    <text x="316" y="20" text-anchor="middle" fill="#4ADE80">Vue</text>

    <!-- Badge: Tauri -->
    <rect x="360" y="0" width="64" height="30" rx="6" fill="#F5BC3D" opacity="0.15"/>
    <rect x="360" y="0" width="64" height="30" rx="6" stroke="#F5BC3D" stroke-width="1" fill="none" opacity="0.4"/>
    <text x="392" y="20" text-anchor="middle" fill="#FCA5A5">Tauri</text>
  </g>

  <!-- Bottom tagline -->
  <text x="640" y="560" text-anchor="middle" font-family="'Segoe UI', 'SF Pro Display', Helvetica, Arial, sans-serif" font-size="16" fill="#64748B" letter-spacing="3">TS + RUST + PYTHON · NX MONOREPO · FULL STACK</text>

  <!-- Corner accents -->
  <path d="M0 0 L80 0 L0 80 Z" fill="#2972B0" opacity="0.15"/>
  <path d="M1280 640 L1200 640 L1280 560 Z" fill="#F5BC3D" opacity="0.15"/>
</svg>
