<svg width="16" height="16" viewBox="0 0 16 16" fill="none" xmlns="http://www.w3.org/2000/svg">
  <g clip-path="url(#clip0_11_1011)">
    <path
      d="M3.23676 3.23676C2.92108 3.55244 2.92108 4.06426 3.23676 4.37994L6.85685 8.00002L3.23689 11.62C2.92121 11.9357 2.92121 12.4475 3.23689 12.7632C3.55257 13.0788 4.06438 13.0788 4.38006 12.7632L8.00002 9.1432L11.6201 12.7632C11.9357 13.0789 12.4476 13.0789 12.7632 12.7632C13.0789 12.4476 13.0789 11.9357 12.7632 11.6201L9.1432 8.00002L12.7634 4.37986C13.079 4.06418 13.079 3.55236 12.7634 3.23668C12.4477 2.921 11.9359 2.921 11.6202 3.23668L8.00002 6.85685L4.37994 3.23676C4.06426 2.92108 3.55244 2.92108 3.23676 3.23676Z"
      fill="#A9AEB8" />
  </g>
  <defs>
    <clipPath id="clip0_11_1011">
      <rect width="16" height="16" fill="white" />
    </clipPath>
  </defs>
</svg>
