<svg width="120" height="120" viewBox="0 0 120 120" fill="none" xmlns="http://www.w3.org/2000/svg">
  <path
    d="M110 65.7453C110 73.7437 108.102 81.3038 104.729 88H15.2714C11.8976 81.3038 10 73.7437 10 65.7453C10 38.2715 32.386 16 59.9989 16C87.614 16 110 38.2715 110 65.7453Z"
    fill="url(#paint0_linear_757_37404)" />
  <ellipse cx="60" cy="103" rx="18" ry="3" fill="#E5E6EB" />
  <path
    d="M69.6379 61.5749L68.6239 67.019L63.794 92.8984L55.0938 91.2739L60.6723 61.3787L60.9376 59.9541L69.6379 61.5749Z"
    fill="#A9AEB8" />
  <path
    d="M91.065 48.5561L88.065 64.6397C88.0562 64.6869 88.0382 64.7318 88.012 64.772C87.9858 64.8122 87.952 64.8468 87.9125 64.8739C87.8729 64.901 87.8284 64.9201 87.7815 64.93C87.7345 64.9399 87.6861 64.9404 87.639 64.9316L45.4912 57.0707L50.452 30.4727L82.4574 36.4421C88.2583 37.5237 92.1112 42.9463 91.065 48.5561Z"
    fill="#E5E6EB" />
  <path
    d="M59.4536 43.1584L56.4771 59.1172L34.3535 54.9909L37.33 39.0322C38.4259 33.1564 44.267 29.3167 50.3761 30.4561C56.4853 31.5955 60.5495 37.2825 59.4536 43.1584Z"
    fill="#A9AEB8" />
  <path
    d="M69.754 50.6192C68.1237 50.3151 67.048 48.7306 67.3551 47.0852C67.6621 45.4398 69.2364 44.3492 70.8667 44.6535C71.3864 44.7511 71.871 44.9846 72.2712 45.3303C72.6713 45.676 72.9728 46.1215 73.1449 46.6215L93.7387 50.4624L93.1824 53.4454L72.5886 49.6044C72.2478 50.0088 71.806 50.3158 71.3082 50.494C70.8103 50.6723 70.274 50.7155 69.754 50.6192Z"
    fill="#6B7785" />
  <path
    d="M58.7197 43.4518L55.8197 59.0005L34.9785 55.1134L37.8787 39.5647C38.9464 33.84 44.4777 30.0691 50.2327 31.1425C55.9878 32.2159 59.7874 37.7271 58.7197 43.4518Z"
    fill="#6B7785" />
  <path
    d="M70.3375 49.1116C71.1755 49.1116 71.8548 48.4323 71.8548 47.5944C71.8548 46.7564 71.1755 46.0771 70.3375 46.0771C69.4996 46.0771 68.8203 46.7564 68.8203 47.5944C68.8203 48.4323 69.4996 49.1116 70.3375 49.1116Z"
    fill="white" />
  <path
    d="M93.9766 50.4512L92.1574 60.2047C92.1496 60.2467 92.1254 60.2839 92.0902 60.308C92.0549 60.3322 92.0115 60.3413 91.9695 60.3335L87.1875 59.4416C87.1792 59.4401 87.1719 59.4353 87.1671 59.4283C87.1624 59.4214 87.1606 59.4128 87.1621 59.4045L89.005 49.5239C89.0065 49.5156 89.0113 49.5083 89.0183 49.5035C89.0252 49.4988 89.0338 49.4969 89.0421 49.4985L93.9512 50.4141C93.9595 50.4156 93.9668 50.4204 93.9716 50.4274C93.9763 50.4343 93.9781 50.4429 93.9766 50.4512Z"
    fill="#A9AEB8" />
  <path
    d="M41.8758 49.5336C42.0771 51.015 43.7026 52.7757 43.7026 52.7757C41.2257 52.9512 39.8843 51.5505 39.3071 50.6993C38.5935 50.9055 37.86 51.0357 37.119 51.0876C32.034 51.448 27.6565 48.1282 27.3404 43.6687C27.0242 39.2093 30.8897 35.3051 35.9748 34.9447C41.0598 34.5844 45.437 37.9041 45.7531 42.3636C45.9587 45.2643 44.3935 47.9305 41.8758 49.5336Z"
    fill="#E5E6EB" />
  <rect x="31.9414" y="41.0801" width="1.95556" height="3.55556" rx="0.977778"
    transform="rotate(1.89518 31.9414 41.0801)" fill="#6B7785" />
  <rect x="35.6465" y="42.0039" width="1.95556" height="1.95556" rx="0.977778"
    transform="rotate(1.89518 35.6465 42.0039)" fill="#6B7785" />
  <rect x="39.4033" y="41.3271" width="1.95556" height="3.55556" rx="0.977778"
    transform="rotate(1.89518 39.4033 41.3271)" fill="#6B7785" />
  <path
    d="M56.4991 59.1264C56.2689 59.7093 52.0578 77.073 38.4307 74.5314C23.4878 72.0016 34.2964 54.9854 34.2964 54.9854L56.4991 59.1264Z"
    fill="#A9AEB8" />
  <path d="M69.6375 61.5749L68.6235 67.019L60.6719 61.3787L60.9371 59.9541L69.6375 61.5749Z"
    fill="#6B7785" />
  <defs>
    <linearGradient id="paint0_linear_757_37404" x1="60" y1="16" x2="60" y2="88"
      gradientUnits="userSpaceOnUse">
      <stop stop-color="#F7F8FA" />
      <stop offset="1" stop-color="#F7F8FA" stop-opacity="0" />
    </linearGradient>
  </defs>
</svg>
