<svg width="16" height="16" viewBox="0 0 16 16" fill="none" xmlns="http://www.w3.org/2000/svg">
  <g clip-path="url(#clip0_11671_126199)">
    <path
      d="M10.3324 3.99999C10.7005 3.99999 10.999 3.70151 10.999 3.33332C10.999 2.96513 10.7005 2.66666 10.3324 2.66666C9.96417 2.66666 9.66569 2.96513 9.66569 3.33332C9.66569 3.70151 9.96417 3.99999 10.3324 3.99999Z"
      stroke="#6B7785" stroke-width="1.33333" stroke-linecap="round" stroke-linejoin="round" />
    <path
      d="M10.3324 8.66666C10.7005 8.66666 10.999 8.36818 10.999 7.99999C10.999 7.6318 10.7005 7.33332 10.3324 7.33332C9.96417 7.33332 9.66569 7.6318 9.66569 7.99999C9.66569 8.36818 9.96417 8.66666 10.3324 8.66666Z"
      stroke="#6B7785" stroke-width="1.33333" stroke-linecap="round" stroke-linejoin="round" />
    <path
      d="M10.3324 13.3333C10.7005 13.3333 10.999 13.0348 10.999 12.6667C10.999 12.2985 10.7005 12 10.3324 12C9.96417 12 9.66569 12.2985 9.66569 12.6667C9.66569 13.0348 9.96417 13.3333 10.3324 13.3333Z"
      stroke="#6B7785" stroke-width="1.33333" stroke-linecap="round" stroke-linejoin="round" />
    <path
      d="M5.66569 3.99999C6.03388 3.99999 6.33236 3.70151 6.33236 3.33332C6.33236 2.96513 6.03388 2.66666 5.66569 2.66666C5.2975 2.66666 4.99902 2.96513 4.99902 3.33332C4.99902 3.70151 5.2975 3.99999 5.66569 3.99999Z"
      stroke="#6B7785" stroke-width="1.33333" stroke-linecap="round" stroke-linejoin="round" />
    <path
      d="M5.66569 8.66666C6.03388 8.66666 6.33236 8.36818 6.33236 7.99999C6.33236 7.6318 6.03388 7.33332 5.66569 7.33332C5.2975 7.33332 4.99902 7.6318 4.99902 7.99999C4.99902 8.36818 5.2975 8.66666 5.66569 8.66666Z"
      stroke="#6B7785" stroke-width="1.33333" stroke-linecap="round" stroke-linejoin="round" />
    <path
      d="M5.66569 13.3333C6.03388 13.3333 6.33236 13.0348 6.33236 12.6667C6.33236 12.2985 6.03388 12 5.66569 12C5.2975 12 4.99902 12.2985 4.99902 12.6667C4.99902 13.0348 5.2975 13.3333 5.66569 13.3333Z"
      stroke="#6B7785" stroke-width="1.33333" stroke-linecap="round" stroke-linejoin="round" />
  </g>
  <defs>
    <clipPath id="clip0_11671_126199">
      <rect width="16" height="16" fill="white" />
    </clipPath>
  </defs>
</svg>
