<svg width="48" height="48" viewBox="0 0 16 16" fill="none" xmlns="http://www.w3.org/2000/svg">
  <path
    d="M1 7C1 3.68629 3.68629 1 7 1C10.3137 1 13 3.68629 13 7C13 8.44074 12.4922 9.76287 11.6458 10.7972L14.5757 13.7271C14.8101 13.9614 14.8101 14.3413 14.5757 14.5756C14.3414 14.8099 13.9615 14.8099 13.7272 14.5756L10.7973 11.6457C9.76297 12.4922 8.44079 13 7 13C3.68629 13 1 10.3137 1 7ZM7 11.8C9.65097 11.8 11.8 9.65097 11.8 7C11.8 4.34903 9.65097 2.2 7 2.2C4.34903 2.2 2.2 4.34903 2.2 7C2.2 9.65097 4.34903 11.8 7 11.8Z"
    fill="#6B7785" />
</svg>
