<svg width="1236" height="1120" viewBox="0 0 1236 1120" fill="none" xmlns="http://www.w3.org/2000/svg">
<g clip-path="url(#clip0_2_2)">
<path d="M1162.23 99.4L482.15 97C437.64 96.84 417.72 149.22 445.24 194.05L918.73 965.45C949.42 1015.45 1012.86 1015.67 1026.25 965.83L1232.85 196.83C1244.86 152.14 1206.75 99.56 1162.24 99.4H1162.23Z" fill="#3AB549"/>
<path d="M752.93 1002.27L72.85 999.9C28.34 999.75 -9.77003 947.16 2.23997 902.47L208.8 133.46C222.19 83.61 285.63 83.83 316.32 133.83L789.84 905.21C817.36 950.04 797.44 1002.42 752.93 1002.26V1002.27Z" fill="#F5D72B"/>
<path d="M1048.81 215.93L368.73 213.53C324.22 213.37 304.3 265.75 331.82 310.58L805.31 1081.98C836 1131.98 899.44 1132.2 912.83 1082.36L1119.43 313.36C1131.44 268.67 1093.33 216.09 1048.82 215.93H1048.81Z" fill="#2972B0"/>
<path d="M878.12 906.07L198.04 903.7C153.53 903.55 115.42 850.96 127.43 806.27L333.99 37.2601C347.38 -12.5899 410.82 -12.3699 441.51 37.6301L915.03 809.01C942.55 853.84 922.63 906.22 878.12 906.06V906.07Z" fill="#2972B0"/>
</g>
<defs>
<clipPath id="clip0_2_2">
<rect width="1235.08" height="1119.61" fill="white"/>
</clipPath>
</defs>
</svg>
